<?xml version="1.0" standalone="no"?>
<!DOCTYPE svg PUBLIC "-//W3C//DTD SVG 20010904//EN"
 "http://www.w3.org/TR/2001/REC-SVG-20010904/DTD/svg10.dtd">
<svg version="1.0" xmlns="http://www.w3.org/2000/svg"
 width="40pt" height="30pt" viewBox="0 0 224.000000 129.000000"
 preserveAspectRatio="xMidYMid meet">
<metadata>
Created by potrace 1.16, written by Peter Selinger 2001-2019
</metadata>
<g transform="translate(0.000000,129.000000) scale(0.100000,-0.100000)"
fill="#FFFFFF" stroke="none">
<path d="M1337 1241 c-36 -24 -134 -155 -142 -191 -12 -53 -244 -326 -390
-459 -80 -72 -132 -127 -126 -131 7 -4 -31 -44 -91 -96 -157 -137 -212 -186
-222 -195 -24 -22 99 27 189 76 57 30 114 55 126 55 13 0 93 18 177 39 128 32
161 37 196 29 41 -8 44 -12 94 -105 29 -53 51 -98 49 -99 -2 -2 -113 -11 -794
-61 l-373 -27 0 -23 c0 -27 -6 -26 150 -13 123 10 451 33 720 50 205 13 494
33 934 65 187 14 343 25 348 25 4 0 8 11 8 25 0 25 -2 25 -47 20 -59 -7 -582
-42 -755 -51 l-126 -7 -30 60 c-28 55 -30 64 -20 102 8 32 20 49 48 67 51 34
144 175 164 250 9 32 25 140 37 239 27 231 38 251 164 304 l68 29 -29 15 c-19
9 -75 16 -164 20 -120 6 -138 4 -163 -12z"/>
</g>
</svg>
